<?xml version="1.0" encoding="utf-8"?>
<!-- Generator: Adobe Illustrator 25.0.0, SVG Export Plug-In . SVG Version: 6.00 Build 0)  -->
<svg version="1.1" id="Layer_1" xmlns="http://www.w3.org/2000/svg" xmlns:xlink="http://www.w3.org/1999/xlink" x="0px" y="0px"
	 viewBox="0 0 477.77 595.28" style="enable-background:new 0 0 477.77 595.28;" xml:space="preserve">
<style type="text/css">
	.st0{fill:#573479;}
	.st1{fill:#B7243A;}
</style>
<g>
	<g>
		<g>
			<path class="st0" d="M412.39,199.52C412.39,199.52,412.4,199.52,412.39,199.52c-30.06-25.73-65.04-32.17-65.04-32.17
				c13.92-16.25,19.53-33.23,19.53-33.23c-54.88-4.88-83.68,32.27-90.92,43.21c62.65-28.1,129.61,22.18,129.61,22.18
				c0,0-0.01,0-0.01,0.01c0,0,0.01,0,0.01,0.01c0,0-66.96,50.27-129.61,22.18c7.24,10.94,36.04,48.1,90.92,43.21
				c0,0-5.61-16.98-19.53-33.23C347.34,231.69,382.33,225.25,412.39,199.52C412.4,199.53,412.39,199.52,412.39,199.52z"/>
			<path class="st0" d="M208.64,221.71c-62.65,28.1-129.61-22.18-129.61-22.18c0,0,0.01,0,0.01-0.01c0,0-0.01,0-0.01-0.01
				c0,0,66.96-50.27,129.61-22.18c-7.24-10.94-36.04-48.1-90.92-43.21c0,0,5.61,16.98,19.53,33.23c0,0-34.98,6.44-65.05,32.16
				c0,0,0.01,0.01,0.01,0.01c0,0-0.01,0.01-0.01,0.01c30.07,25.72,65.05,32.16,65.05,32.16c-13.92,16.25-19.53,33.23-19.53,33.23
				C172.6,269.81,201.41,232.65,208.64,221.71z"/>
			<path class="st0" d="M220.12,165.87c-28.1-62.65,22.18-129.61,22.18-129.61c0,0,0,0.01,0.01,0.01c0,0,0-0.01,0.01-0.01
				c0,0,50.27,66.96,22.18,129.61c10.94-7.24,48.1-36.04,43.21-90.92c0,0-16.98,5.61-33.23,19.53c0,0-6.44-34.98-32.16-65.05
				c0,0-0.01,0.01-0.01,0.01c0,0-0.01-0.01-0.01-0.01c-25.72,30.07-32.16,65.05-32.16,65.05c-16.25-13.92-33.23-19.53-33.23-19.53
				C172.02,129.83,209.17,158.63,220.12,165.87z"/>
			<path class="st0" d="M264.48,233.18c28.1,62.65-22.18,129.61-22.18,129.61c0,0,0-0.01-0.01-0.01c0,0,0,0.01-0.01,0.01
				c0,0-50.27-66.96-22.18-129.61c-10.94,7.24-48.1,36.04-43.21,90.92c0,0,16.98-5.61,33.23-19.53c0,0,6.44,34.98,32.16,65.05
				c0,0,0.01-0.01,0.01-0.01c0,0,0.01,0.01,0.01,0.01c25.72-30.07,32.16-65.05,32.16-65.05c16.25,13.92,33.23,19.53,33.23,19.53
				C312.58,269.22,275.42,240.42,264.48,233.18z"/>
		</g>
		<path class="st1" d="M275.53,194.16c-1.31,0.89-27.77,27.6-29.76,29.52l3.82,3.82c33.75-40.65,68.94-59.21,118.73-28.68
			c-22.41,15.21-64.37,22.46-86.26,2.87l-3.92,3.92c45.11,34.5,100.08-6.78,100.08-6.78c0,0,0,0-0.01,0c0,0,0,0,0.01,0
			C378.22,198.82,321.1,155.94,275.53,194.16z"/>
		<path class="st1" d="M247.08,232.66c-0.89-1.31-27.6-27.77-29.52-29.76l-3.82,3.82c40.65,33.75,59.21,68.94,28.68,118.73
			c-15.21-22.41-22.46-64.37-2.87-86.26l-3.92-3.92c-34.5,45.11,6.78,100.08,6.78,100.08c0,0,0,0,0-0.01c0,0,0,0,0,0.01
			C242.42,335.35,285.3,278.23,247.08,232.66z"/>
		<path class="st1" d="M209.22,204.44c1.31-0.89,27.77-27.6,29.76-29.52l-3.82-3.82c-33.75,40.65-68.94,59.21-118.73,28.68
			c22.41-15.21,64.37-22.46,86.26-2.87l3.92-3.92c-45.11-34.5-100.08,6.78-100.08,6.78c0,0,0,0,0.01,0c0,0,0,0-0.01,0
			C106.53,199.78,163.65,242.66,209.22,204.44z"/>
		<path class="st1" d="M237.01,166.41c0.89,1.31,27.6,27.77,29.52,29.76l3.82-3.82c-40.65-33.75-59.21-68.94-28.68-118.73
			c15.21,22.41,22.46,64.37,2.87,86.26l3.92,3.92c34.5-45.11-6.78-100.08-6.78-100.08c0,0,0,0,0,0.01c0,0,0,0,0-0.01
			C241.67,63.71,198.79,120.84,237.01,166.41z"/>
	</g>
	<g>
		<path class="st1" d="M233.51,409l-8.68,8.68c-0.61,3.1,1.59,20.04-1.61,21.98c-4.65-5.77-21.01-1.77-27.44-2.9
			c-25.74-0.01-77.69,0.01-103.01,0c-0.86-0.01-4.26,0.01-5.13,0c-1.72,0-1.62-9.4-1.62-11.55v-32.86l-8.69,8.58
			c-1.09,17.91,7.24,57.34-21.76,56.44c-19.96,3.29-34.35-36.16-10.07-36.55c-10.25-10.91-20.07,5.13-19.08,15.12
			c-1.57,33.22,49.42,40.65,57.63,9.4c29.54,0,81.83,0,111.74,0c7.56,1.28,23.65-3.93,27.34,5.47
			C239.47,448.2,231.91,419.58,233.51,409z"/>
		<path class="st1" d="M211.43,450.81l-6,5.9c3.32,1.51,4.17,4.73,3.32,8.04C213.82,461.92,217.26,454.87,211.43,450.81z"/>
		<path class="st1" d="M256.04,435.58v-41.91l-8.58,8.58c2.07,21.37-9.68,62.64,23.26,63.78
			C256.36,457.67,256.04,451.45,256.04,435.58z"/>
		<path class="st1" d="M429.86,414.93c0,0.86-0.22,1.72-0.43,2.46c5.23-2.88,8.46-9.84,2.68-13.94l-5.9,6
			C428.47,410.54,429.86,412.36,429.86,414.93z"/>
		<path class="st1" d="M415.28,414.93c0,0.86-0.21,1.72-0.43,2.46c5.31-2.9,8.62-9.83,2.68-13.94l-5.9,6
			C413.99,410.54,415.28,412.36,415.28,414.93z"/>
		<path class="st1" d="M451.03,409.27l-8.68,8.68c-0.61,3.1,1.59,20.04-1.61,21.98c-4.66-5.78-21.01-1.77-27.44-2.9
			c-25.51,0-76.62,0-101.73,0c-2.75-0.55-6.29,1.91-6.43-3.43c0,0,0-24.55,0-24.55l-3,3c-10.57-15.57-33.61-2.99-32.16,13.94
			c-2.5,13.69,20.31,30.22,25.08,11.79c-16.28,9.26-23.01-22.3-6.75-24.12c12.1,0.24,7.29,17.73,8.25,25.3
			c0,21.23-7.37,23.83-24.31,30.9c17.8,1.29,31.92-6.55,32.67-25.86c1.17,2.36,4.61,1.44,6.65,1.61c24.97,0,76.37,0,101.73,0
			c7.56,1.28,23.65-3.93,27.34,5.47C456.99,448.47,449.43,419.85,451.03,409.27z"/>
	</g>
	<g>
		<path class="st1" d="M87.22,494.6v4.25H63.3v65.93h-9.57v-65.93h-9.57c-8.51,0-13.29,3.72-13.29,12.23h-2.13v-7.98
			c0-4.25,1.6-8.51,9.04-8.51H87.22z"/>
		<path class="st1" d="M148.9,564.79c-1.06,0.32-2.66,0.53-4.25,0.53c-4.79,0-13.4-1.6-18.08-13.82l-2.66-6.91H94.14l-8.51,20.2
			h-4.79l29.77-70.18h3.19l23.39,56.89c3.3,7.98,5.85,10.63,11.7,11.17V564.79z M95.73,540.33h26.05l-12.76-30.84L95.73,540.33z"/>
		<path class="st1" d="M143.59,507.05c-2.87-8.08-5.32-10.63-11.7-11.17v-2.13c0.53,0,2.66-0.21,3.62-0.21
			c5.96,0,13.82,1.17,18.18,13.51l14.25,41.05l11.38-33.71l-2.55-7.34c-2.87-8.08-5.32-10.63-11.7-11.17v-2.13
			c0.53,0,2.66-0.21,3.62-0.21c5.96,0,13.82,1.17,18.18,13.51l14.25,41.05l18.18-53.49h4.57l-24.35,71.25h-2.13l-15.74-44.77
			l-15.31,44.77h-2.13L143.59,507.05z"/>
		<path class="st1" d="M286.62,564.79c-1.06,0.32-2.66,0.53-4.25,0.53c-4.79,0-13.4-1.6-18.08-13.82l-2.66-6.91h-29.77l-8.51,20.2
			h-4.79l29.77-70.18h3.19l23.39,56.89c3.3,7.98,5.85,10.63,11.7,11.17V564.79z M233.45,540.33h26.05l-12.76-30.84L233.45,540.33z"
			/>
		<path class="st1" d="M311.08,494.6c11.17,0,28.71,2.13,28.71,18.61c0,6.38-4.25,12.23-13.82,15.42
			c13.82,2.13,17.55,8.51,17.55,17.01c0,15.95-15.95,19.14-29.24,19.14h-21.27v-57.42c0-6.38-1.06-10.63-7.44-10.63h-2.13v-2.13
			H311.08z M312.68,527.04c8.51,0,17.01-4.79,17.01-14.36c0-10.1-10.63-14.35-19.14-14.35c-2.66,0-5.85,0.53-7.98,1.06v27.65H312.68
			z M302.58,531.29v28.29c3.19,0.96,6.91,1.49,10.1,1.49c12.76,0,20.2-5.32,20.2-14.89s-6.91-14.89-20.2-14.89H302.58z"/>
		<path class="st1" d="M357.34,494.6h9.57v57.42c0,6.38,1.06,10.63,7.44,10.63h2.13v2.13h-9.57c-7.44,0-9.57-2.13-9.57-12.76V494.6z
			"/>
		<path class="st1" d="M397.75,560.53h37.75v4.25h-47.32v-57.42c0-6.38-1.06-10.63-7.44-10.63h-2.13v-2.13h9.57
			c7.44,0,9.57,2.13,9.57,12.76V560.53z"/>
	</g>
</g>
</svg>
